PathFileType	4	(X/Y/Z)	C:\Users\WrightLab\Desktop\Jo\P1_boxCal32.trc
DataRate	CameraRate	NumFrames	NumMarkers	Units	OrigDataRate	OrigDataStartFrame	OrigNumFrames
100.00	100.00	       20	19	mm	100.00	461	       737
Frame#	Time	Headset_Front			Headset_Back			Headset_Left			Headset_Right			Left_Shoulder			Right_Shoulder			Sternum			C7			Left Elbow			Right Elbow			Left Wrist			Right Wrist			Left ASIS			Right ASIS			S2			Left Knee			Right Knee			Left Ankle			Right Ankle			
		X1	Y1	Z1	X2	Y2	Z2	X3	Y3	Z3	X4	Y4	Z4	X5	Y5	Z5	X6	Y6	Z6	X7	Y7	Z7	X8	Y8	Z8	X9	Y9	Z9	X10	Y10	Z10	X11	Y11	Z11	X12	Y12	Z12	X13	Y13	Z13	X14	Y14	Z14	X15	Y15	Z15	X16	Y16	Z16	X17	Y17	Z17	X18	Y18	Z18	X19	Y19	Z19	

461	4.600	-592.75085	1312.54590	-378.41907	-692.06982	1502.40527	-156.42374	-752.71259	1414.99829	-289.81567	-532.59393	1372.08167	-253.07542	-885.45782	1272.84827	-210.13240	-526.31207	1239.00415	-93.71992	-662.40106	1136.24451	-257.71826	-749.62097	1281.37244	-48.28160	-1031.56494	987.22711	-236.23045	-485.12286	996.72656	48.10386	-1080.76697	835.93176	-378.53638	-407.08719	749.26746	26.63880	-783.38483	864.62994	-291.13550	-599.08215	847.19714	-221.18973	-795.03699	895.95264	34.61209	-923.60150	435.81693	-167.07793	-528.14380	443.86050	-154.76143	-905.50726	75.35142	-80.69379				
462	4.610	-597.96814	1312.53857	-382.54810	-695.29089	1502.81091	-161.26656	-756.88660	1415.64880	-293.99603	-539.02618	1371.65747	-258.22366	-889.27747	1273.50159	-213.79051	-529.40753	1239.53723	-100.11575	-665.79370	1135.98096	-260.24957	-753.14783	1281.72424	-52.11669	-1037.96289	988.56714	-237.22289	-487.22748	997.17700	40.03291	-1092.71863	838.73083	-377.33456	-408.84433	749.55377	17.52670	-786.79791	864.76636	-294.96146	-601.52582	848.12219	-227.59045	-796.32983	896.08270	30.82972	-925.20892	434.68582	-169.39043	-532.53900	444.57556	-167.84906	-905.71820	75.21883	-80.98273				
463	4.620	-602.90198	1314.36462	-389.94171	-698.38879	1502.59290	-165.15425	-760.74915	1416.52100	-298.34073	-542.41528	1372.03833	-263.60199	-893.72382	1273.44360	-216.64056	-532.56201	1240.46387	-106.19963	-669.65924	1136.59753	-265.46106	-755.68079	1281.24585	-56.37272	-1043.96228	990.00897	-238.73831	-488.97580	996.91406	32.36886	-1104.03052	841.19830	-376.13181	-410.85223	749.84369	8.32291	-790.11761	865.10132	-298.93491	-603.85681	848.50952	-233.30069	-796.83453	895.93640	26.25204	-927.50812	433.86246	-171.41467	-537.22107	445.72086	-179.68860	-906.08984	75.17543	-81.59277				
464	4.630	-606.87036	1314.02954	-394.30893	-702.01581	1502.98718	-170.19859	-765.18719	1416.99182	-303.36267	-545.25299	1372.55920	-268.85477	-897.39874	1273.45898	-219.84444	-535.30566	1241.65344	-112.02842	-673.90680	1138.43579	-272.89749	-758.56641	1281.36523	-61.24438	-1047.64148	989.11731	-239.53537	-490.65872	996.84772	24.24596	-1114.68848	843.02045	-374.92273	-412.99677	750.15387	-1.18656	-793.11664	865.82880	-302.96820	-606.18567	849.96429	-239.02292	-797.18127	895.56482	22.53218	-929.22998	433.61038	-174.15475	-541.41003	446.59836	-192.21550	-906.33344	75.00106	-81.95199				
465	4.640	-611.94397	1313.94922	-398.06351	-704.71777	1503.54932	-174.67897	-769.05286	1417.86572	-307.99875	-548.96686	1372.50171	-274.45102	-901.28412	1273.23865	-223.29512	-538.22565	1242.52783	-117.90142	-677.51910	1138.31763	-278.24728	-761.11383	1281.14270	-65.13401	-1052.57520	990.00610	-241.37886	-492.60498	997.31348	18.08649	-1124.73376	844.63330	-373.50302	-413.73459	751.13440	-8.96345	-796.40662	865.79010	-307.01712	-607.99829	851.25464	-246.09363	-797.23285	895.85687	18.58114	-931.65631	432.34146	-176.57243	-545.75580	448.23602	-204.59468	-906.49500	74.86820	-82.24638				
466	4.650	-616.09375	1315.24133	-405.20789	-708.09174	1504.01294	-178.97615	-772.47296	1418.40552	-311.72009	-552.86011	1373.17786	-280.44568	-905.03058	1273.18762	-227.26579	-541.57709	1243.78479	-123.77357	-679.83411	1140.71570	-287.99301	-764.56543	1280.84290	-70.81435	-1055.34741	989.50433	-242.66484	-493.25876	997.85608	10.34742	-1133.79810	846.65509	-371.58295	-417.30643	750.58179	-17.62210	-798.67365	865.60156	-310.53836	-609.27600	851.78040	-252.47885	-796.65344	894.76862	13.55710	-933.01074	431.70322	-177.77489	-549.10229	449.28781	-216.39227	-906.65173	74.70541	-82.58913				
467	4.660	-620.70557	1315.68042	-409.40918	-710.90460	1502.50635	-184.45190	-776.36108	1419.31616	-316.83783	-557.42432	1372.26819	-286.34540	-908.29065	1272.73621	-230.77670	-544.16412	1244.58496	-129.48119	-683.84894	1139.49963	-286.85507	-766.69843	1280.88513	-75.66432	-1059.88867	988.88342	-244.05980	-494.93750	998.60944	3.43939	-1142.26819	847.43958	-370.11813	-417.79153	751.63544	-26.43319	-801.67517	865.74323	-314.65555	-610.98267	852.95117	-258.78961	-796.51324	895.25885	10.12711	-933.60175	431.40054	-179.27043	-553.81696	450.98676	-228.62782	-906.85895	74.49740	-83.00346				
468	4.670	-624.33411	1317.03369	-416.38300	-713.34863	1501.93530	-188.26604	-780.20142	1420.12317	-321.36090	-562.29486	1372.76465	-291.13522	-911.74695	1272.62158	-234.08734	-547.16418	1245.84692	-135.22757	-686.96423	1140.57068	-293.18018	-769.19037	1280.81616	-80.06596	-1062.60767	988.81110	-245.64740	-496.05719	998.45410	-4.47724	-1150.14771	848.97760	-368.41397	-418.72113	753.35028	-35.92242	-804.05823	866.32080	-318.22897	-612.71594	854.09686	-264.64700	-796.24536	894.73425	6.16439	-934.41248	430.71957	-180.30347	-557.62347	452.76166	-239.92697	-907.32385	74.44786	-83.12642				
469	4.680	-628.70673	1317.89819	-421.14722	-718.26770	1502.45984	-193.44267	-783.57861	1420.93079	-326.27588	-565.05554	1373.21204	-296.24759	-914.73700	1271.74304	-237.52673	-549.33618	1246.82483	-140.48357	-690.32892	1140.69543	-299.69904	-771.61389	1280.67688	-84.86678	-1066.79504	988.61133	-247.21765	-497.72327	999.37396	-11.07809	-1156.97620	848.26135	-366.69998	-421.46274	753.34436	-43.87574	-806.35315	866.73083	-322.01181	-613.99292	854.67590	-270.80322	-795.67419	895.24683	1.85409	-934.66010	432.30060	-181.85597	-561.68500	454.85858	-251.45131	-907.32111	74.40897	-83.21170				
470	4.690	-632.70050	1319.37219	-427.06659	-720.05554	1502.11633	-197.25168	-787.38727	1421.76221	-331.00372	-566.66382	1374.43506	-302.78275	-917.66693	1271.00281	-242.00250	-551.88177	1247.83984	-146.86842	-692.19147	1141.84412	-304.05630	-774.25085	1279.69641	-89.84932	-1068.26196	987.36328	-248.08856	-499.18457	999.48431	-17.80463	-1163.00330	848.62854	-364.33325	-422.86996	753.50885	-52.79609	-809.00751	866.61835	-326.23819	-616.13525	855.15802	-276.58850	-795.31207	893.81641	-5.25063	-933.13824	432.68649	-182.00833	-566.36444	457.75626	-262.82169	-907.34412	74.42158	-83.19736				
471	4.700	-636.31750	1320.66357	-433.07129	-722.63544	1501.64819	-202.37340	-790.37396	1422.22864	-335.28986	-570.32715	1375.09265	-308.91922	-920.05127	1270.28503	-246.37241	-554.09894	1248.80273	-152.94977	-694.89557	1142.10596	-309.39310	-776.30737	1279.36938	-94.98817	-1069.51892	986.92377	-249.47581	-500.90073	999.69629	-24.11437	-1169.50366	849.32935	-362.49405	-425.01816	753.86029	-60.73214	-811.19061	866.86725	-330.48340	-617.73254	855.92206	-282.82037	-794.47375	894.94946	-7.50670	-932.87299	433.04739	-182.63699	-571.40405	459.76627	-272.11996	-907.25391	74.46305	-83.12860				
472	4.710	-640.30890	1321.82251	-438.82062	-725.37402	1502.17090	-205.84761	-793.86530	1422.67273	-340.58054	-573.35590	1375.86243	-314.98975	-922.81830	1269.62378	-251.07077	-556.02844	1249.49194	-159.40385	-696.98401	1142.55017	-315.61288	-778.22009	1278.92175	-100.61727	-1072.48059	985.91418	-250.55356	-501.29373	999.79987	-31.56297	-1174.67786	849.19073	-360.84796	-427.18414	754.41888	-68.24200	-812.99237	866.90961	-334.53659	-618.23541	857.57568	-290.48587	-793.44891	895.01855	-11.47354	-932.24561	433.07529	-185.08992	-575.41913	462.06494	-282.27658	-906.83087	74.67544	-82.79629				
473	4.720	-643.89368	1323.16272	-445.25861	-728.25165	1501.71863	-210.76334	-797.33606	1423.16492	-345.01028	-576.97021	1376.84973	-321.58325	-924.71985	1268.73975	-256.04642	-557.95404	1249.98511	-164.30988	-698.83673	1142.41675	-320.33752	-780.43091	1279.03186	-106.20549	-1074.19739	985.03516	-251.60936	-502.56888	1000.33173	-38.85715	-1178.65100	847.89545	-358.62091	-427.92380	754.45245	-78.71259	-814.48254	866.83160	-339.60583	-619.32190	857.62878	-295.97763	-793.13220	894.69440	-16.48334	-930.92273	432.47583	-184.83037	-579.19952	464.51248	-292.01233	-906.74335	74.94469	-82.27010				
474	4.730	-647.60339	1324.72888	-451.22421	-731.47699	1501.66956	-215.93469	-800.16681	1423.22327	-348.78363	-579.81134	1377.90759	-326.81567	-926.75354	1268.35913	-262.33539	-559.43390	1250.45374	-170.79163	-700.76910	1142.26855	-326.52322	-781.61102	1278.38367	-111.75471	-1074.84497	984.48273	-252.18358	-503.66537	1000.97400	-45.29580	-1182.59827	846.75824	-356.62784	-429.30737	755.09137	-85.98825	-816.10852	866.81824	-345.46381	-621.01660	857.96240	-303.02594	-792.75281	895.51355	-20.64593	-930.33875	432.20493	-185.95772	-583.02881	466.82843	-301.05814	-906.81647	75.31518	-81.70841				
475	4.740	-650.83905	1326.48755	-457.83124	-733.70715	1501.40930	-220.18579	-803.64410	1423.84839	-354.12729	-582.06384	1379.05579	-334.36209	-928.38416	1267.60095	-268.02731	-561.00397	1251.22754	-177.23694	-701.92920	1142.88062	-332.93066	-783.41541	1278.06042	-117.09381	-1076.02466	983.53540	-253.33937	-504.96536	1001.30450	-51.66572	-1185.44983	845.31183	-354.29520	-430.76767	754.59589	-93.94747	-817.36053	865.97089	-349.92685	-622.08228	858.59015	-308.26083	-792.44745	895.30389	-25.69977	-930.04816	431.68542	-187.12529	-586.46515	469.51996	-309.77289	-906.58746	75.41772	-81.41983				
476	4.750	-654.15497	1328.11951	-464.65424	-735.64972	1500.73572	-224.69240	-806.20636	1424.16248	-358.23560	-584.93311	1380.11841	-340.66196	-930.11078	1266.73389	-272.82217	-562.67755	1251.80615	-183.34474	-703.19501	1142.84851	-339.39749	-784.87512	1277.53442	-123.12627	-1077.23206	982.91284	-254.82217	-504.68280	1001.80328	-57.23254	-1186.91528	842.83069	-352.60471	-431.23090	755.22717	-102.89487	-818.76764	865.05219	-355.63266	-623.57153	858.35864	-314.52441	-792.59943	895.64435	-30.37282	-930.04926	431.07306	-188.35797	-589.68237	470.86798	-318.23679	-906.32410	75.49698	-81.19198				
477	4.760	-657.13928	1329.43481	-470.01102	-738.40619	1500.52063	-229.62204	-809.25159	1424.73022	-363.76755	-587.22797	1381.38135	-346.77658	-931.96405	1266.51514	-278.63351	-564.17145	1251.73071	-189.65813	-704.08569	1142.99329	-346.13358	-786.50543	1278.01782	-129.78535	-1077.69739	982.02673	-256.42163	-505.15118	1001.72229	-64.85009	-1189.51123	841.86786	-350.47598	-432.38763	755.43878	-109.33057	-819.65942	864.11139	-359.96045	-623.92889	858.21985	-319.92010	-792.04321	895.90405	-38.40540	-930.03430	430.43045	-189.72891	-592.51111	472.52832	-326.56412	-906.00250	75.28286	-81.00117				
478	4.770	-659.91498	1331.17480	-476.73465	-740.99304	1500.66907	-235.02545	-811.50989	1424.72937	-368.58435	-591.35968	1382.08887	-352.74539	-933.50195	1265.51526	-283.98001	-564.98877	1252.08301	-195.66559	-705.44336	1142.73584	-351.72586	-787.53375	1277.42114	-135.05240	-1077.70398	981.05450	-258.06082	-504.72989	1001.71295	-71.00061	-1190.82593	839.36523	-348.47546	-432.66025	755.79974	-118.28249	-820.50958	863.52039	-366.00543	-625.59973	858.18896	-326.55948	-792.71484	895.48865	-44.32118	-929.81158	429.71475	-190.61685	-595.53857	473.69800	-334.04764	-905.78094	75.22957	-81.17171				
479	4.780	-662.55945	1332.40015	-483.04367	-742.03125	1500.29932	-240.07169	-814.47369	1424.77295	-374.48892	-593.38519	1381.85254	-359.08359	-934.63031	1265.06763	-290.18182	-565.84406	1251.81006	-202.94099	-706.16498	1142.53455	-358.29282	-788.39465	1276.71387	-141.48743	-1078.02258	980.50348	-259.39758	-505.68771	1002.01764	-78.83247	-1190.84668	836.30969	-346.35474	-432.46637	756.27197	-125.69562	-821.03430	862.26770	-371.47614	-626.57208	858.41168	-332.13022	-792.80969	894.50775	-50.65321	-929.27167	429.26157	-190.11478	-598.54388	474.65103	-342.58795	-905.54358	75.57549	-81.78909				
480	4.790	-664.54749	1333.22400	-489.57455	-744.35455	1500.07593	-245.25929	-816.22687	1424.60681	-379.47894	-593.87946	1384.39172	-366.45193	-935.84497	1264.59460	-296.20221	-566.51544	1251.90002	-208.72522	-707.27216	1141.99536	-363.77603	-788.55115	1275.74231	-147.00520	-1078.21155	979.66669	-261.81763	-505.60641	1002.10974	-85.77988	-1191.82654	834.42303	-344.89578	-432.36285	755.67554	-133.03609	-821.95612	861.71387	-377.42975	-626.75763	858.45007	-339.54971	-790.47931	896.12738	-51.82423	-929.30823	427.90210	-190.30383	-600.89691	475.92334	-350.71954	-905.55017	75.75777	-81.61738				
